<svg id="visual" viewBox="0 0 900 600" width="900" height="600" xmlns="http://www.w3.org/2000/svg" xmlns:xlink="http://www.w3.org/1999/xlink" version="1.1"><path d="M0 503L21.5 506.7C43 510.3 86 517.7 128.8 517.3C171.7 517 214.3 509 257.2 501.8C300 494.7 343 488.3 385.8 494.8C428.7 501.3 471.3 520.7 514.2 524.3C557 528 600 516 642.8 506.2C685.7 496.3 728.3 488.7 771.2 494.3C814 500 857 519 878.5 528.5L900 538L900 601L878.5 601C857 601 814 601 771.2 601C728.3 601 685.7 601 642.8 601C600 601 557 601 514.2 601C471.3 601 428.7 601 385.8 601C343 601 300 601 257.2 601C214.3 601 171.7 601 128.8 601C86 601 43 601 21.5 601L0 601Z" fill="#D81B60" stroke-linecap="round" stroke-linejoin="miter"></path></svg>